<svg width="37" height="37" viewBox="0 0 37 37" fill="none" xmlns="http://www.w3.org/2000/svg">
<g id="Iconly/Bold/3 User">
<g id="3 User">
<path id="3 Friends" fill-rule="evenodd" clip-rule="evenodd" d="M24.9108 12.6924C24.9108 16.3148 22.023 19.2194 18.4215 19.2194C14.82 19.2194 11.9322 16.3148 11.9322 12.6924C11.9322 9.06858 14.82 6.16675 18.4215 6.16675C22.023 6.16675 24.9108 9.06858 24.9108 12.6924ZM18.4215 30.8335C13.1318 30.8335 8.61509 29.9948 8.61509 26.6404C8.61509 23.2845 13.1028 22.4154 18.4215 22.4154C23.7113 22.4154 28.228 23.254 28.228 26.6098C28.228 29.9643 23.7403 30.8335 18.4215 30.8335ZM27.684 12.8102C27.684 14.6568 27.1332 16.3771 26.1669 17.8072C26.0675 17.9543 26.1558 18.1529 26.3312 18.1834C26.5727 18.2251 26.8226 18.2487 27.0766 18.2556C29.6096 18.3223 31.8832 16.6825 32.5113 14.2139C33.4417 10.547 30.7098 7.25504 27.2312 7.25504C26.853 7.25504 26.4913 7.29531 26.1393 7.3675C26.091 7.37861 26.0399 7.40083 26.0123 7.44387C25.9792 7.49663 26.004 7.56744 26.0371 7.61326C27.0821 9.08639 27.684 10.883 27.684 12.8102ZM31.879 20.832C33.5811 21.1666 34.7006 21.8497 35.1644 22.8424C35.5564 23.6575 35.5564 24.603 35.1644 25.4166C34.4549 26.9564 32.1675 27.4507 31.2785 27.5784C31.0949 27.6062 30.9472 27.4465 30.9666 27.2618C31.4207 22.9952 27.8082 20.9722 26.8736 20.5071C26.8336 20.4863 26.8253 20.4543 26.8295 20.4349C26.8322 20.421 26.8488 20.3988 26.8792 20.3946C28.9015 20.3571 31.0756 20.6348 31.879 20.832ZM9.92392 18.2555C10.1779 18.2485 10.4264 18.2263 10.6693 18.1833C10.8447 18.1527 10.933 17.9542 10.8336 17.807C9.86733 16.3769 9.31654 14.6566 9.31654 12.81C9.31654 10.8829 9.9184 9.08622 10.9634 7.61309C10.9965 7.56727 11.02 7.49646 10.9882 7.4437C10.9606 7.40205 10.9082 7.37845 10.8612 7.36734C10.5078 7.29514 10.1462 7.25488 9.76794 7.25488C6.2893 7.25488 3.55746 10.5469 4.48924 14.2137C5.11733 16.6824 7.39087 18.3221 9.92392 18.2555ZM10.1704 20.4341C10.1745 20.4549 10.1662 20.4854 10.1276 20.5077C9.19165 20.9728 5.57911 22.9957 6.03327 27.261C6.05259 27.4471 5.90627 27.6053 5.72267 27.579C4.83369 27.4512 2.54634 26.9569 1.83681 25.4172C1.44339 24.6022 1.44339 23.658 1.83681 22.843C2.30063 21.8503 3.41876 21.1672 5.12081 20.8312C5.92559 20.6354 8.09836 20.3577 10.122 20.3952C10.1524 20.3994 10.1676 20.4216 10.1704 20.4341Z" fill="url(#paint0_linear_34_1537)"/>
</g>
</g>
<defs>
<linearGradient id="paint0_linear_34_1537" x1="18.5001" y1="6.16675" x2="18.5001" y2="30.8334" gradientUnits="userSpaceOnUse">
<stop stop-color="white"/>
<stop offset="1" stop-color="white" stop-opacity="0.51"/>
</linearGradient>
</defs>
</svg>
